<svg width="530" height="190" viewBox="0 0 530 190" fill="none" xmlns="http://www.w3.org/2000/svg">
<path d="M0.414795 40.9925C1.55123 40.4125 2.68766 40.0276 3.94851 39.6005C4.05568 39.2483 4.22764 38.6831 4.39959 38.1179C4.90693 38.3972 5.4108 38.6831 5.92258 38.9539C6.4368 39.226 6.95163 39.6933 7.47878 39.7117C10.3123 39.8106 12.032 41.3515 11.9981 44.1539C11.9648 46.9152 11.8588 49.6909 11.5168 52.4266C11.3464 53.79 10.577 55.0779 10.0804 56.3952C10.2421 56.3782 10.7433 56.3257 11.1686 56.2811C11.307 56.3909 11.4057 56.4326 11.4057 56.4744C11.4126 62.4051 11.4123 68.3358 11.4123 74.2665C11.6703 74.3658 11.9284 74.4652 12.1864 74.5645C13.3639 73.2949 14.459 71.9336 15.7385 70.7778C17.548 69.1432 19.3193 67.3201 21.4393 66.2264C22.9781 65.4327 25.056 65.5052 26.8926 65.5109C35.2435 65.537 43.594 65.6798 51.9448 65.772C53.7034 65.7914 55.4704 65.6692 57.2189 65.8041C59.0287 65.9439 58.8848 64.7311 58.8907 63.64C58.918 58.5781 58.9061 53.5159 58.9081 48.4538C58.9085 47.6346 58.9082 46.8155 58.9082 45.9529C62.3331 45.3397 60.806 48.5445 62.3087 49.8482C62.4505 47.8651 62.5702 46.1925 62.7311 43.9437C61.8564 43.826 60.7982 43.6836 59.3245 43.4852C58.1169 42.152 59.3683 40.7926 60.7152 39.1662C58.0411 38.4134 58.5569 36.3856 58.4851 34.5566C58.3917 32.178 58.1532 29.8024 58.1333 27.4242C58.0835 21.4677 57.9087 15.4993 58.2145 9.55805C58.3672 6.59238 59.4631 3.67561 60.1424 0.576517C62.0976 0.416305 64.0429 0.416305 66.1816 0.416306C66.9596 2.64893 67.5442 4.88156 68.0784 6.9217C68.2692 6.16688 68.5078 5.02214 68.8631 3.9151C69.0073 3.46574 69.4055 3.09845 69.6881 2.69382C69.9613 3.17678 70.4632 3.65569 70.4717 4.14334C70.5413 8.09683 70.5209 12.0519 70.5228 16.0066C70.5248 20.1 70.5122 24.1935 70.5255 28.2869C70.5295 29.5125 70.5163 30.5436 68.9509 31.0039C68.2945 31.1968 67.9065 32.3092 67.3965 33.0035C67.5324 33.1372 67.6684 33.2708 67.8043 33.4044C68.4197 33.1971 69.0351 32.9898 70.0302 32.6545C70.3391 35.0058 70.8642 37.2769 70.8956 39.5549C71.0037 47.3933 70.9829 55.2346 70.9085 63.0739C70.8908 64.9387 71.2945 65.7976 73.3944 65.8434C77.6549 65.9364 81.9079 66.3517 86.1661 66.5979C86.6032 66.6231 87.0745 66.4532 87.4953 66.2859C88.6747 65.8172 90.512 66.979 90.2582 68.1738C89.9738 69.5131 89.5681 70.8892 88.8818 72.0509C88.5795 72.5627 87.4667 72.6399 86.6995 72.8171C85.3223 73.1351 83.9382 73.4917 82.5378 73.6173C81.526 73.7081 80.4832 73.4511 79.4604 73.3499C79.6154 74.882 78.9192 75.6493 77.7463 75.1271C76.4914 74.5683 75.289 73.891 73.8676 73.1654C73.8043 74.9272 73.3542 75.9072 71.5696 75.9065C71.0911 75.9064 70.3097 77.0698 70.1974 77.783C69.9735 79.2057 70.0947 80.6869 70.1121 82.1434C70.2437 93.1783 70.4236 104.213 70.4983 115.248C70.5197 118.401 70.284 121.558 70.0733 124.707C70.0295 125.361 69.5747 125.988 69.3094 126.627C69.1236 126.59 68.9378 126.553 68.752 126.516C68.752 124.654 68.752 122.791 68.752 120.574C66.7904 123.263 66.6343 140.489 68.6774 142.573C67.1868 143.474 65.8394 144.382 64.3851 145.058C64.1912 145.148 63.4555 144.065 62.672 143.192C62.9378 143.145 62.6105 143.127 62.3618 143.258C61.0304 143.961 60.2679 143.578 60.0239 142.101C59.9343 141.559 59.7722 141.019 59.7586 140.475C59.6006 134.175 59.4829 127.874 59.3157 121.574C59.2252 118.164 59.0593 114.755 58.9305 111.345C58.92 111.068 58.8445 110.75 58.9484 110.519C60.3202 107.466 58.9956 104.427 58.9663 101.382C58.945 99.1773 59.291 96.9713 59.3312 94.7632C59.4406 88.7642 59.4972 82.7637 59.4939 76.7638C59.4937 76.2966 58.9554 75.5796 58.5081 75.4156C57.6285 75.0932 56.6325 74.9303 55.6925 74.959C47.9745 75.1944 40.2579 75.4798 32.5417 75.7721C30.4992 75.8495 28.4595 76.0787 26.4186 76.0777C25.7972 76.0775 24.9678 75.7028 24.5934 75.2191C23.4062 73.6854 21.7847 73.4632 20.3294 74.8364C20.1334 75.0214 20.0042 75.2784 19.8469 75.5041C19.191 76.4451 18.5362 77.387 18.1158 78.5897C18.4346 78.4311 18.7534 78.2725 19.2317 78.1261C19.4388 78.1893 19.4864 78.2402 19.534 78.2912C18.7102 80.7249 17.4738 82.6889 14.4993 82.5039C15.0302 85.6964 12.7173 87.1035 10.9202 88.5242C9.65491 89.5244 9.2752 90.5383 9.05146 92.2329C9.80636 91.8173 10.2974 91.5469 11.0911 91.1099C11.0911 94.487 11.2363 97.6384 11.0251 100.765C10.9304 102.168 9.98311 102.929 8.20087 102.515C7.01004 102.238 5.59298 102.671 4.33644 103.009C2.17689 103.589 1.48547 102.482 1.22125 100.638C1.16801 100.267 0.885644 99.9282 0.561855 99.535C0.414795 80.0596 0.414795 60.6236 0.414795 40.9925ZM61.8511 37.5006C62.5913 35.0979 62.2885 32.7591 61.5924 30.4444C61.3825 30.4533 61.1725 30.4622 60.9626 30.4711C61.0918 32.7913 61.2211 35.1116 61.2369 37.5198C61.3663 37.5988 61.4958 37.6777 61.8511 37.5006Z" fill="white"/>
<path d="M233.336 189.416C232.447 188.927 231.797 188.349 231.048 187.964C226.096 185.413 223.318 180.186 224.067 174.73C224.845 169.063 228.436 165.103 233.942 163.839C240.985 162.223 248.335 168.11 248.51 175.373C248.665 181.766 246.01 186.229 240.042 188.628C239.806 188.723 239.626 188.957 239.392 189.271C237.419 189.416 235.474 189.416 233.336 189.416ZM237.216 185.284C240.733 184.938 243.826 182.341 244.646 179.046C245.619 175.137 244.283 171.007 241.395 169C236.15 165.355 229.506 167.826 227.831 174.037C226.268 179.836 231.305 186.138 237.216 185.284Z" fill="white"/>
<path d="M181.253 80.3723C180.081 79.6326 178.549 79.1509 177.807 78.1048C175.595 74.9884 173.114 73.3082 169.08 74.3978C167.272 74.8862 165.231 74.4829 163.297 74.5329C161.348 74.5833 160.024 76.8079 160.446 78.6964C160.644 79.5846 160.08 80.6615 159.803 81.6364C158.681 85.595 156.07 88.5922 153.349 91.4897C151.877 93.057 150.379 94.6452 148.675 95.9327C147.273 96.9913 145.582 97.6924 143.961 98.4228C141.592 99.4906 139.245 100.743 136.752 101.363C134.04 102.038 131.172 102.316 128.371 102.327C125.804 102.337 123.154 102.049 120.687 101.363C117.894 100.587 115.271 99.2034 112.558 98.1237C111.624 97.7517 110.638 97.5113 109.684 97.1852C109.362 97.0752 108.956 96.9677 108.776 96.721C105.404 92.089 100.257 88.8398 98.2603 83.1356C97.7177 81.5858 96.9555 80.0936 96.5841 78.5065C94.3753 69.0664 94.9294 59.9523 100.443 51.6658C101.83 49.5805 104.358 48.1781 105.458 46.0018C106.972 43.0092 109.567 41.8194 112.168 40.5449C120.046 36.6833 128.256 35.8053 136.899 37.603C142.751 38.8204 147.831 41.3201 152.193 45.2655C153.949 46.8534 155.464 48.816 156.703 50.8448C158.363 53.5607 159.696 56.4837 161.063 59.3687C161.434 60.1508 161.497 61.1101 161.568 61.9987C161.746 64.242 163.193 64.5063 165.031 64.5156C168.029 64.5306 171.026 64.7271 174.024 64.8098C174.766 64.8302 176.143 64.5688 176.165 64.6708C176.643 66.8569 178.973 65.1881 179.944 66.6141C180.811 67.8855 182.27 68.742 183.433 69.8192C187.08 73.1976 190.838 76.4687 194.303 80.0263C196.677 82.4632 196.548 85.6693 195.915 88.8362C195.759 89.6155 195.744 90.4319 195.741 91.2315C195.724 95.2182 195.733 99.205 195.733 102.945C192.879 103.71 190.62 104.315 188.224 104.956C187.864 104.76 187.106 104.467 186.502 103.981C186.05 103.617 185.495 103.003 185.499 102.505C185.536 97.9439 185.686 93.3838 185.798 88.8232C185.812 88.2697 186.015 87.5503 185.75 87.1891C184.377 85.3186 184.946 83.0944 184.476 81.0727C183.922 78.691 182.293 77.4295 180.185 77.6679C179.262 76.7148 178.52 75.8877 177.777 75.0606C177.535 75.2968 177.294 75.533 177.052 75.7692C177.95 76.5398 178.848 77.3104 179.746 78.081C180.304 78.6921 180.862 79.3032 181.419 80.0826C181.418 80.2509 181.253 80.3723 181.253 80.3723ZM103.734 58.3865C104.662 57.3813 105.591 56.3761 106.75 55.1211C106.926 54.489 107.217 53.4378 107.606 52.0379C105.76 53.5547 104.175 54.8571 102.637 56.12C102.813 56.7527 103.018 57.4882 103.113 58.3218C103.103 58.4247 103.093 58.5276 103.083 58.6304C103.231 58.6125 103.379 58.5945 103.734 58.3865ZM106.169 65.4637C105.652 66.5663 105.024 67.634 104.667 68.7864C104.491 69.3542 104.77 70.0906 104.929 70.7293C105.157 71.6459 105.542 72.5288 105.707 73.4536C105.81 74.0335 105.445 74.7192 105.606 75.2631C107.238 80.7712 109.357 85.957 115.013 88.6247C115.382 88.7988 115.698 89.0845 116.046 89.3067C117.392 90.1658 118.675 91.1575 120.101 91.8492C123.587 93.5391 127.45 93.3126 131.157 93.5546C133.692 93.72 136.429 93.4491 138.59 91.6373C140.105 90.3667 141.45 88.8548 143.082 87.7712C145.336 86.275 146.857 84.2497 148.362 82.0718C151.315 77.8013 152.349 73.1479 151.943 68.0359C151.885 67.3009 152.57 66.5064 152.982 65.5796C151.628 64.7404 150.811 63.1558 151.026 61.1771C151.273 58.9061 150.387 57.1063 148.877 55.5991C148.026 54.7505 146.947 54.1294 145.954 53.4291C143.608 51.7742 141.628 49.7923 138.756 48.653C134.751 47.0647 130.92 45.7873 126.635 46.6373C122.209 47.5151 117.61 47.6254 114.086 51.3517C110.3 55.3548 106.608 59.246 106.169 65.4637ZM176.836 74.3512C176.77 74.3548 176.703 74.3584 176.637 74.362C176.682 74.385 176.727 74.4081 176.836 74.3512ZM109.201 50.4574C109.247 50.417 109.292 50.3766 109.338 50.3363C109.293 50.3437 109.249 50.3511 109.201 50.4574ZM185.526 84.4347C185.586 84.4027 185.556 84.4187 185.526 84.4347Z" fill="white"/>
<path d="M529.311 96.8299C529.069 99.2783 528.86 101.539 528.59 103.792C528.523 104.343 528.404 105.121 528.038 105.34C527.63 105.585 526.799 105.5 526.351 105.229C524.601 104.169 522.847 103.08 521.271 101.785C520.676 101.297 520.473 100.244 520.255 99.406C520.077 98.723 520.143 97.9762 519.719 97.2314C519.443 97.931 519.168 98.6305 518.658 99.9254C516.569 97.6053 514.716 95.7007 513.042 93.6494C511.051 91.2097 509.294 88.5767 507.286 86.1519C505.315 83.7718 503.254 81.4488 501.056 79.2815C498.527 76.7885 495.697 74.6015 493.196 72.083C490.671 69.5403 488.241 66.8698 486.052 64.0355C484.51 62.0402 483.445 59.6759 482.157 57.4817C482.055 57.307 481.907 57.1296 481.736 57.0291C479.457 55.6884 477.17 54.3612 474.829 52.998C473.393 53.8029 473.928 55.0212 474.032 56.4356C474.378 61.1736 474.606 65.9442 474.451 70.6883C474.315 74.8792 473.996 74.9318 469.608 74.9327C463.179 74.9341 456.75 74.9456 450.321 74.9192C448.156 74.9103 447.07 73.4065 447.316 71.216C447.469 69.8465 447.473 68.3541 445.431 68.233C444.897 68.2013 444.19 68.0984 443.888 67.7466C443.308 67.0714 442.962 66.1947 442.519 65.4015C443.227 65.1114 443.932 64.5807 444.644 64.5693C450.055 64.4829 455.468 64.5459 460.878 64.4187C461.52 64.4036 462.47 63.6445 462.703 63.0161C463.147 61.8159 463.384 60.4543 463.341 59.1722C463.197 54.8852 462.807 50.6061 462.688 46.319C462.643 44.6659 463.105 43.0028 463.272 41.3378C463.352 40.5311 463.286 39.7095 463.111 38.8731C463.022 39.3073 462.934 39.7415 462.846 40.1757C462.671 40.1675 462.497 40.1593 462.323 40.1511C462.537 34.2338 462.835 28.318 462.942 22.3988C463.049 16.4854 462.966 10.5685 462.966 4.80543C464.401 4.73631 465.532 4.75435 466.643 4.61352C469.071 4.30575 471.287 5.3541 472.712 6.85644C473.726 7.92572 473.658 10.2254 473.708 11.9863C473.932 19.9499 474.051 27.9168 474.155 35.8833C474.188 38.4817 475.001 40.2063 477.434 41.7516C480.388 43.6276 482.721 46.4868 485.326 48.916C486.664 50.1631 488.07 51.3433 489.333 52.6622C490.146 53.5108 490.713 54.59 491.462 55.5069C492.878 57.24 494.22 59.0602 495.814 60.6157C501.641 66.302 507.629 71.8227 513.397 77.568C514.999 79.1638 516.018 81.3404 517.365 83.2071C517.788 83.7933 518.406 84.2374 519.44 84.7045C519.271 82.9796 518.99 81.257 518.956 79.5294C518.878 75.6489 518.963 71.7653 518.905 67.8841C518.864 65.1415 518.513 62.3926 518.633 59.6612C518.789 56.0972 519.295 52.5495 519.606 48.9908C519.716 47.7278 519.58 46.4354 519.772 45.1897C519.921 44.2188 520.404 43.2997 520.836 42.084C521.259 43.4521 521.544 44.3732 521.829 45.2943C522.059 45.291 522.29 45.2877 522.52 45.2845C522.873 42.871 523.631 41.1001 526.549 41.198C527.483 41.2293 528.461 39.9591 529.933 38.9219C529.725 58.5313 529.523 77.5852 529.311 96.8299ZM527.637 64.6117C527.476 63.1819 527.371 61.742 527.116 60.3292C527.051 59.9677 526.535 59.4721 526.186 59.4361C525.802 59.3965 525.034 59.7867 525.012 60.0399C524.802 62.4746 524.11 65.108 524.789 67.3005C525.297 68.9425 526.833 70.0881 524.92 71.8985C525.711 71.5399 526.247 71.1164 526.383 70.5892C526.859 68.7364 527.198 66.848 527.637 64.6117ZM470.07 19.603C470.231 15.8199 470.223 15.7736 469.242 14.4461C469.022 16.9157 467.663 19.6281 469.367 22.0566C469.563 22.0414 469.759 22.0263 469.955 22.0112C469.955 21.2891 469.955 20.567 470.07 19.603ZM487.509 58.9129C487.125 58.5011 486.74 58.0892 486.356 57.6773C486.509 59.8267 487.483 61.2277 489.813 61.4295C489.121 60.6439 488.43 59.8583 487.509 58.9129ZM490.756 62.9457C490.669 62.8265 490.581 62.7073 490.493 62.5882C490.547 62.7358 490.6 62.8834 490.756 62.9457Z" fill="white"/>
<path d="M426.358 47.1483C433.201 54.8678 436.523 63.5956 435.265 73.8982C434.975 76.2686 435.004 78.5423 432.325 79.7561C431.675 80.0506 431.369 81.3973 431.153 82.3187C430.056 86.9934 427.598 90.6899 424.425 94.3492C420.947 98.3608 416.919 101.06 412.069 102.331C406.77 103.718 401.274 104.4 395.764 103.103C395.261 102.984 394.697 103.15 394.162 103.143C393.479 103.135 392.692 103.297 392.13 103.02C388.831 101.394 385.336 100.011 382.368 97.895C374.802 92.502 370.238 85.0751 368.705 75.8138C368.618 75.2902 367.768 74.6871 367.158 74.4978C365.559 74.0023 363.809 73.9267 362.28 73.2943C360.188 72.4292 358.303 71.1069 355.997 72.8331C355.465 73.2307 354.448 72.9047 353.728 73.1396C353.116 73.3395 352.623 73.8883 352.052 74.2431C351.664 74.4845 351.211 74.8688 350.827 74.8264C348.579 74.5785 346.298 74.403 344.115 73.8565C341.724 73.258 340.611 69.1435 342.056 67.2677C342.422 66.7929 342.273 65.9183 342.412 64.8152C342.556 64.7705 343.054 64.4733 343.545 64.4855C347.376 64.5807 351.205 64.7999 355.036 64.8553C359.779 64.9238 364.525 64.8717 369.288 64.8717C368.956 57.9287 372.938 53.2006 376.487 48.3233C379.731 43.8667 384.029 40.634 389.104 38.581C391.367 37.6651 393.824 36.9159 396.239 36.7511C402.508 36.3232 408.624 36.688 414.691 39.1386C419.253 40.9817 422.959 43.5845 426.358 47.1483ZM398.077 92.8368C402.097 92.8368 406.116 92.8368 409.976 92.8368C410.235 91.0637 411.809 90.3992 412.721 90.6575C414.586 91.186 415.164 90.0715 415.984 89.0134C416.994 87.7098 417.823 86.1851 419.061 85.1564C421.363 83.244 422.515 80.8131 423.285 78.0264C425.877 68.6496 424.635 60.2576 417.233 53.3631C416.196 52.3964 414.626 51.5376 414.304 50.3541C413.411 47.0784 409.625 47.8376 408.234 45.4731C406.732 46.7918 405.021 45.922 403.386 45.9858C401.646 46.0537 399.879 46.6877 398.189 46.4952C395.629 46.2036 393.874 47.1293 392.36 49.0246C392.164 49.2708 391.523 49.1602 390.552 49.2823C389.838 49.9007 388.542 50.9182 387.366 52.0597C384.567 54.7772 381.707 57.2071 380.599 61.4719C379.912 64.112 379.46 66.6035 379.621 69.2178C379.882 73.4563 379.968 77.7677 382.053 81.6494C383.18 83.7461 384.401 85.7917 385.755 88.1679C384.36 88.3887 383.238 88.5665 382.115 88.7443C382.104 88.9691 382.093 89.194 382.082 89.4188C383.015 89.4745 383.948 89.5589 384.882 89.5788C386.127 89.6053 387.458 89.294 388.602 89.6349C391.683 90.5529 394.683 91.74 398.077 92.8368ZM388.703 95.2208C391.259 97.6477 396.238 98.5207 397.975 97.0185C397.546 96.4661 397.207 95.8186 396.683 95.4111C396.096 94.9539 395.089 94.2513 394.703 94.4624C393.34 95.2067 392.225 94.5036 391.928 93.6238C391.309 91.7885 390.534 92.4287 389.549 93.0668C388.836 93.5291 388.103 93.9617 387.189 94.5242C387.754 94.7574 388.119 94.9082 388.703 95.2208ZM381.562 87.8132C381.519 87.8518 381.476 87.8904 381.432 87.929C381.477 87.923 381.521 87.9171 381.562 87.8132ZM345.897 65.8685C345.963 65.87 345.93 65.8693 345.897 65.8685Z" fill="white"/>
<path d="M321.679 65.1084C320.078 65.0001 320.323 66.0952 320.271 66.949C320.109 69.6393 319.904 72.3295 319.842 75.0227C319.755 78.7566 316.82 80.7756 314.895 83.3579C312.493 86.58 309.809 89.5923 307.204 92.659C306.751 93.1922 306.089 93.5467 305.142 94.2789C308.576 94.5035 311.439 94.7065 314.305 94.8593C314.689 94.8797 315.267 94.7727 315.45 94.5104C316.823 92.5427 318.696 93.1522 320.619 93.1813C324.818 93.2448 329.026 92.8027 333.225 92.8813C337.622 92.9636 342.021 93.3184 346.402 93.7335C349.841 94.0593 351.154 96.7364 349.555 99.5925C349.374 99.9142 349.92 100.645 350.218 101.415C348.472 103.217 345.814 103.258 343.191 103.223C336.378 103.133 329.567 102.852 322.755 102.855C315.793 102.858 308.832 103.144 301.87 103.236C297.055 103.299 292.239 103.252 287.423 103.231C286.7 103.227 285.978 103.096 284.677 102.967C286.287 100.59 287.603 98.6042 288.963 96.6493C290.659 94.2127 292.351 91.7724 294.126 89.3943C294.781 88.5164 295.644 87.7885 296.449 87.0318C297.552 85.9957 298.77 85.0727 299.796 83.9675C302.054 81.534 304.149 78.9452 306.451 76.5558C308.37 74.5634 308.817 72.1607 308.435 69.6719C307.631 64.4419 309.489 62.6479 314.635 63.9903C316.482 64.4721 318.493 63.5553 319.731 62.0836C321.197 60.3404 322.921 58.8175 324.494 57.1622C326.519 55.0322 328.462 52.8229 330.524 50.7304C331.826 49.4094 333.28 48.2394 334.798 46.8836C334.339 46.7506 333.932 46.4831 333.607 46.5603C328.795 47.6996 323.922 46.771 319.085 47.019C315.937 47.1804 312.777 47.1085 309.623 47.1658C308.496 47.1863 307.2 48.8516 306.528 47.2177C305.545 47.4588 304.716 47.8429 303.892 47.8299C301.616 47.794 299.34 47.6171 297.067 47.4467C295.696 47.3439 294.323 47.2058 292.967 46.98C291.61 46.7537 291.314 45.5603 292.002 43.8348C292.634 42.2497 292.839 40.6115 292.616 38.8761C292.56 38.4379 293.371 37.4637 293.787 37.4618C295.571 37.4536 297.356 37.7163 299.319 37.8967C299.166 38.4591 299.034 38.7062 299.048 38.9452C299.073 39.402 299.181 39.8543 299.254 40.3084C299.683 40.0274 300.508 39.6878 300.477 39.4747C300.207 37.6348 301.557 37.5347 302.651 37.5247C309.631 37.4608 316.653 37.0386 323.573 37.6859C326.904 37.9975 330.013 37.1357 333.265 37.3869C336.542 37.6401 339.869 37.159 343.174 37.1608C345.261 37.162 347.348 37.4675 349.437 37.6132C349.741 37.6343 350.052 37.503 350.362 37.479C352.129 37.3424 353.899 37.1187 355.66 37.1703C356.014 37.1806 356.746 38.4201 356.591 38.8019C356.219 39.7192 355.494 40.5316 354.788 41.2671C350.897 45.322 346.951 49.3245 343.057 53.3776C339.659 56.9149 336.386 60.5794 332.876 63.9989C331.981 64.8704 330.412 65.3646 329.12 65.4367C326.704 65.5716 324.263 65.2709 321.679 65.1084ZM329.273 43.295C330.813 43.2295 332.354 43.1641 333.895 43.0986C333.912 42.7311 333.93 42.3636 333.947 41.996C331.273 41.5264 328.599 41.0567 325.659 40.5405C326.271 42.6697 327.096 43.68 329.273 43.295Z" fill="white"/>
<path d="M222.118 89.8989C221.223 89.5208 220.248 89.4187 219.638 88.8909C218.515 87.9183 216.945 86.8072 216.735 85.5557C216.16 82.1213 216.125 78.5865 216.011 75.087C215.945 73.0316 215.882 70.9156 216.29 68.9244C216.616 67.3321 217.64 66.1936 219.755 66.1185C224.372 65.9545 228.111 63.9992 230.001 59.4976C231.225 56.5833 230.983 53.5917 229.361 50.9263C228.709 49.8543 227.44 48.8519 226.244 48.4717C218.562 46.0275 210.703 45.0668 202.664 46.249C201.059 46.485 199.459 46.8109 197.846 46.9032C197.263 46.9365 196.648 46.4067 195.985 46.1057C194.052 48.2375 196.017 50.5351 196.033 52.7999C196.058 56.355 196.113 59.8892 194.687 63.7222C193.837 62.183 193.125 61.4515 191.601 62.2841C190.578 62.8432 189.814 61.9934 189.6 60.8581C189.195 58.7157 188.791 56.5732 188.342 54.1938C187.457 54.545 186.934 54.7527 186.309 55.0009C186.173 54.7612 185.94 54.5422 185.937 54.3206C185.905 51.549 185.91 48.777 185.898 46.0052C185.891 44.5014 185.992 42.9839 185.826 41.4969C185.505 38.605 188.049 37.1075 190.408 37.1343C190.876 37.1396 191.426 37.3384 191.797 37.1572C193.71 36.2241 195.56 37.1655 197.436 37.2066C198.394 37.2276 199.358 36.9875 200.319 36.8618C200.655 36.8178 200.996 36.6941 201.325 36.7239C203.862 36.9538 206.392 37.346 208.933 37.4307C212.66 37.555 216.397 37.3826 220.125 37.4926C223.325 37.587 226.584 37.5813 229.431 39.4618C231.069 40.5438 232.848 41.4503 234.344 42.7C235.97 44.0582 237.524 45.587 238.778 47.2878C240.38 49.4612 240.591 52.1076 240.467 54.7661C240.384 56.5538 240.399 58.346 240.321 60.134C240.277 61.1344 240.389 62.2479 239.995 63.1095C237.541 68.4728 233.504 72.2367 227.861 73.9044C225.842 74.5008 225.768 75.5403 225.69 77.1929C225.514 80.8867 227.681 83.0124 230.247 85.1279C233.806 88.0618 237.169 91.2357 240.622 94.3006C242.919 96.34 245.284 98.3076 247.503 100.429C248.519 101.4 249.257 102.665 250.045 103.697C248.749 105.777 247.54 105.779 245.46 105.051C242.989 104.188 240.642 101.542 237.531 103.498C237.334 103.622 236.682 103.171 236.336 102.876C233.382 100.357 230.419 97.8452 227.529 95.2532C226.593 94.4142 225.939 93.2602 225.01 92.4114C224.504 91.9484 223.691 91.8228 222.681 91.4071C222.604 91.1768 222.403 90.5799 222.118 89.8989ZM231.596 67.3749C232.534 66.6069 233.472 65.839 234.41 65.0711C234.299 64.9338 234.189 64.7964 234.078 64.659C230.983 66.0684 227.888 67.4777 224.415 69.0595C227.27 70.6885 228.477 70.4793 229.935 68.673C230.309 68.2095 230.856 67.8863 231.596 67.3749Z" fill="white"/>
<path d="M139.229 139.107C129.301 139.213 119.539 138.938 109.849 139.653C105.438 139.979 102.26 138.197 98.8031 136.499C99.3912 135.332 99.8728 134.081 100.62 133.018C100.986 132.499 101.83 132.09 102.487 132.044C105.504 131.834 108.62 131.254 111.538 131.757C118.377 132.936 125.216 132.118 132.043 132.294C137.649 132.438 143.273 131.655 148.892 131.601C154.1 131.551 159.303 131.613 164.526 132.197C168.337 132.623 172.278 131.815 176.166 131.649C178.856 131.535 181.555 131.494 184.246 131.566C192.897 131.798 201.604 132.851 210.182 132.185C221.72 131.29 233.223 131.871 244.735 131.587C246.473 131.545 248.221 131.958 249.971 132.161C249.669 133.464 249.753 134.854 249.129 135.355C248.318 136.005 246.944 135.952 245.811 136.195C243.592 136.67 241.372 137.141 239.159 137.613C239.946 137.903 240.782 138.212 241.617 138.52C241.603 138.649 241.588 138.777 241.573 138.906C240.926 138.952 240.279 139.032 239.631 139.037C237.42 139.054 235.208 139.029 232.996 139.046C215.729 139.181 198.463 139.358 181.196 139.436C176.51 139.458 171.822 139.061 167.136 139.081C158.992 139.115 150.849 139.338 142.706 139.443C141.613 139.457 140.518 139.24 139.229 139.107ZM112.049 136.261C110.311 136.104 108.573 135.948 106.835 135.791C106.823 136.001 106.812 136.211 106.8 136.421C108.484 136.421 110.167 136.421 112.049 136.261Z" fill="white"/>
<path d="M303.671 139.461C297.493 139.317 291.52 139.195 285.549 139.008C284.6 138.978 283.551 138.856 282.752 138.409C282.171 138.084 281.863 137.181 281.548 136.484C281.256 135.839 281.118 135.124 280.847 134.221C281.828 133.976 282.865 133.717 283.965 133.442C283.603 133.144 283.202 132.814 282.385 132.142C283.743 132.065 284.606 131.974 285.47 131.973C298.947 131.964 312.424 132.014 325.901 131.948C333.629 131.91 341.356 131.563 349.084 131.58C360.682 131.605 372.279 131.896 383.877 131.939C389.849 131.961 395.821 131.602 401.794 131.582C405.99 131.568 410.187 131.822 414.382 131.999C414.917 132.021 415.441 132.296 415.97 132.453C415.949 132.657 415.928 132.861 415.907 133.064C414.527 133.147 413.148 133.23 411.769 133.313C411.772 133.413 411.776 133.513 411.779 133.613C417.864 133.613 423.953 133.751 430.03 133.53C431.905 133.462 432.817 134.16 433.537 135.316C432.995 136.119 432.608 136.883 432.039 137.469C431.67 137.848 431.039 138.164 430.519 138.173C420.581 138.352 410.643 138.506 400.704 138.611C395.266 138.668 389.827 138.591 384.389 138.634C369.777 138.751 355.166 138.92 340.554 139.013C338.461 139.026 336.368 138.72 334.273 138.585C333.82 138.555 333.354 138.59 332.905 138.66C331.286 138.911 329.673 139.406 328.055 139.422C319.996 139.503 311.936 139.46 303.671 139.461Z" fill="white"/>
<path d="M271.299 85.6603C271.381 88.3837 271.571 90.9115 271.518 93.4341C271.476 95.4041 271.007 97.3644 270.956 99.335C270.904 101.317 271.134 103.306 271.265 105.766C270.207 105.407 269.438 105.146 268.523 104.835C268.219 106.518 267.992 108.411 267.486 110.225C267.307 110.868 266.518 111.605 265.877 111.761C265.433 111.869 264.746 111.082 264.206 110.647C263.654 110.203 263.176 109.667 262.62 109.23C261.046 107.991 259.882 106.765 260.35 104.372C260.769 102.231 260.517 99.9515 260.518 97.733C260.525 80.764 260.519 63.7951 260.525 46.8262C260.526 44.4944 260.445 42.1523 260.641 39.8352C260.734 38.7295 261.151 36.9934 261.842 36.7514C262.865 36.3931 264.262 37.1101 265.227 37.3122C266.584 37.2224 267.764 36.9308 268.861 37.1217C270.493 37.4058 271.354 38.383 271.345 40.3018C271.273 55.3551 271.303 70.4088 271.299 85.6603ZM264.672 79.6674C264.015 77.5334 266.097 74.9436 263.847 73.0746C263.577 73.1027 263.308 73.1308 263.038 73.1589C263.432 77.3285 263.825 81.498 264.219 85.6675C264.472 85.6543 264.725 85.6411 264.978 85.6279C264.877 83.7713 264.776 81.9147 264.672 79.6674ZM265.916 89.2276C265.949 89.2865 265.97 89.3593 266.018 89.4002C266.062 89.4369 266.175 89.4693 266.189 89.4513C267.302 87.9723 267.314 86.1989 266.122 85.1399C265.678 86.0454 265.249 86.9205 264.807 87.8226C265.154 88.224 265.502 88.6275 265.916 89.2276ZM267.158 79.8077C267.082 79.1875 267.006 78.5672 266.929 77.947C266.64 77.9761 266.351 78.0051 266.062 78.0342C266.197 79.3944 266.331 80.7546 266.465 82.1149C266.657 82.114 266.848 82.1132 267.039 82.1123C267.079 81.4504 267.119 80.7885 267.158 79.8077Z" fill="white"/>
<path d="M462.918 127.887C462.949 123.177 462.993 118.604 462.957 114.031C462.931 110.696 463.51 107.139 462.554 104.08C460.983 99.0524 462.318 94.2754 462.432 89.3906C462.482 87.2832 462.262 85.1606 462.435 83.0674C462.596 81.1219 463.317 80.9233 464.899 82.1503C465.383 82.5261 465.821 82.9618 466.388 83.4656C466.954 82.9581 467.529 82.4418 468.317 81.7353C469.012 84.1018 469.637 86.2272 470.257 88.3365C470.444 88.0346 470.718 87.5928 470.993 87.1511C471.155 87.1584 471.317 87.1658 471.479 87.1732C471.479 89.2733 471.479 91.3735 471.479 93.4737C471.625 93.4792 471.77 93.4847 471.916 93.4902C472.457 92.3438 472.998 91.1974 473.539 90.051C473.772 90.0686 474.005 90.0863 474.237 90.1039C474.332 92.5881 474.516 95.073 474.5 97.5565C474.476 101.286 474.206 105.015 474.231 108.744C474.268 114.425 474.451 120.105 474.606 125.785C474.7 129.237 474.874 132.687 474.982 136.139C475.025 137.542 474.49 138.439 473.18 139.297C471.986 140.079 471.308 141.679 470.459 142.956C470.188 143.364 470.1 143.894 469.709 144.973C469.197 143.648 468.916 142.919 468.774 142.551C467.019 142.187 465.404 141.852 463.418 141.44C463.054 140.081 462.337 138.455 462.256 136.798C462.183 135.304 462.804 133.775 462.773 132.105C462.604 132.327 462.436 132.549 461.881 133.276C462.01 131.126 460.883 129.365 462.918 127.887Z" fill="white"/>
<path d="M341.036 166.857C341.582 168.049 342.086 169.088 342.821 170.601C343.599 168.935 344.338 167.78 344.686 166.516C345.359 164.074 346.88 163.596 349.483 164.343C348.615 166.691 348.061 169.206 346.823 171.315C344.805 174.75 344.97 177.915 346.854 181.228C347.452 182.278 347.894 183.417 348.688 185.115C349.677 182.992 350.467 181.438 351.136 179.833C352.994 175.374 354.802 170.893 356.628 166.421C357.693 163.81 358.106 163.613 361.289 164.458C360.83 165.803 360.431 167.153 359.913 168.455C357.591 174.289 355.239 180.11 352.888 185.932C351.951 188.254 347.965 189.759 346.094 188.302C345.253 187.647 344.902 186.335 344.384 185.294C343.905 184.33 343.499 183.329 342.797 181.752C341.882 183.807 341.146 185.248 340.598 186.758C340.131 188.047 339.399 188.7 337.999 188.588C337.176 188.522 336.27 188.78 335.533 188.518C334.678 188.214 333.565 187.669 333.258 186.936C330.404 180.123 327.679 173.255 324.99 166.374C324.745 165.748 325.011 164.92 325.04 164.185C326.114 164.389 327.228 164.482 328.24 164.856C328.608 164.991 328.753 165.786 328.961 166.296C331.229 171.859 333.482 177.428 335.762 182.986C335.987 183.533 336.362 184.018 337.001 185.095C338.039 182.631 338.672 180.522 339.765 178.69C341.162 176.349 340.106 174.466 339.236 172.433C338.367 170.401 337.498 168.363 336.787 166.273C336.577 165.654 336.904 164.852 336.985 164.134C338.044 164.358 339.184 164.416 340.128 164.877C340.601 165.107 340.718 166.072 341.036 166.857Z" fill="white"/>
<path d="M275.869 188.584C269.235 188.584 269.235 188.584 269.235 182.162C269.236 177.031 269.228 171.899 269.24 166.767C269.247 164.045 269.264 163.978 272.054 164.042C275.222 164.114 278.421 164.078 281.543 164.531C285.455 165.1 288.02 167.68 289.595 171.233C292.712 178.261 288.809 186.751 281.64 188.328C279.852 188.721 277.933 188.515 275.869 188.584ZM277.698 167.768C277.009 167.769 276.31 167.843 275.632 167.757C273.531 167.49 272.84 168.388 272.931 170.467C273.073 173.712 272.936 176.968 272.974 180.218C273.042 185.965 272.185 185.216 278.056 185.24C283.135 185.26 287.132 181.341 287.049 176.456C286.973 171.976 283.45 167.249 277.698 167.768Z" fill="white"/>
<path d="M208.252 178.21C208.028 176.214 208.512 175.244 210.625 175.116C212.525 175.001 213.77 172.966 213.621 171.009C213.485 169.232 211.943 167.822 209.971 167.789C207.346 167.743 204.719 167.837 202.097 167.752C200.463 167.699 199.922 168.37 199.938 169.96C199.993 175.436 199.947 180.913 199.953 186.389C199.954 187.585 199.875 188.802 198.256 188.492C197.66 188.377 196.741 187.602 196.734 187.118C196.636 180.049 196.636 172.978 196.737 165.909C196.744 165.419 197.717 164.536 198.257 164.523C202.883 164.41 207.514 164.38 212.139 164.484C214.704 164.542 217.693 168.771 217.275 171.578C216.854 174.401 216.014 176.96 212.994 178.138C211.454 178.738 211.32 179.917 212.299 181.124C213.514 182.621 214.875 183.998 216.122 185.472C216.753 186.218 217.27 187.061 217.976 188.053C215.929 188.799 214.429 188.905 213.11 187.434C212.326 186.559 211.494 185.719 210.622 184.933C208.665 183.169 207.953 180.977 208.252 178.21Z" fill="white"/>
<path d="M316.485 182.393C314.685 177.953 312.963 173.652 311.132 169.398C310.86 168.765 310.043 167.909 309.545 167.951C308.95 168.001 308.183 168.805 307.911 169.459C305.624 174.943 303.445 180.473 301.21 185.979C300.018 188.914 299.958 188.926 296.302 188.25C297.051 186.243 297.726 184.274 298.514 182.352C300.744 176.917 303.09 171.529 305.234 166.061C305.855 164.477 306.728 163.862 308.32 164.018C308.799 164.065 309.294 164.077 309.769 164.014C312.199 163.691 313.5 164.711 314.389 167.06C316.784 173.388 319.449 179.614 321.993 185.886C322.272 186.572 322.458 187.296 322.677 187.973C319.946 189.184 318.972 188.772 318.003 186.205C317.538 184.976 317.021 183.767 316.485 182.393Z" fill="white"/>
<path d="M169.671 177.76C169.674 173.738 169.715 169.924 169.66 166.112C169.638 164.614 170.18 163.993 171.711 164.011C176.34 164.067 180.969 164.05 185.598 164.022C186.859 164.015 187.5 164.421 187.517 165.81C187.535 167.248 186.972 167.793 185.56 167.775C182.106 167.73 178.65 167.817 175.196 167.753C173.633 167.723 172.913 168.234 172.978 169.897C173.154 174.386 173.274 178.878 173.347 183.37C173.373 185.001 174.252 185.284 175.62 185.264C178.866 185.218 182.114 185.27 185.361 185.253C186.586 185.246 187.543 185.378 187.501 187.009C187.462 188.563 186.48 188.579 185.39 188.578C180.83 188.576 176.27 188.54 171.71 188.596C170.178 188.615 169.627 187.994 169.66 186.496C169.722 183.655 169.674 180.811 169.671 177.76Z" fill="white"/>
<path d="M367.967 183.987C367.968 178.029 367.939 172.276 368.004 166.524C368.013 165.729 368.495 164.264 368.75 164.266C369.838 164.273 371.25 164.379 371.946 165.062C373.948 167.031 375.6 169.353 377.507 171.428C379.069 173.127 378.728 175.123 378.729 177.104C378.729 178.338 377.983 178.574 376.959 178.581C375.88 178.589 374.935 178.42 375.054 177.052C375.263 174.629 373.974 173.052 371.913 171.315C371.822 172.34 371.712 173.028 371.709 173.716C371.69 177.944 371.671 182.172 371.708 186.4C371.72 187.789 371.42 188.623 369.769 188.598C368.21 188.575 367.914 187.761 367.968 186.479C367.999 185.718 367.969 184.955 367.967 183.987Z" fill="white"/>
<path d="M149.317 173.996C150.236 178.326 147.989 181.473 145.045 184.36C145.168 184.519 145.292 184.678 145.415 184.837C147.521 184.837 149.627 184.834 151.734 184.837C154.427 184.842 157.121 184.869 159.814 184.854C161.169 184.846 161.375 185.671 161.364 186.768C161.354 187.786 161.145 188.559 159.907 188.556C152.725 188.541 145.543 188.537 138.361 188.513C138.112 188.512 137.864 188.339 137.105 188.055C138.292 186.454 139.292 184.975 140.427 183.608C141.745 182.02 143.258 180.592 144.53 178.971C145.087 178.262 145.467 177.268 145.561 176.366C145.861 173.495 146.122 173.253 149.187 173.957C149.332 174.012 149.317 173.996 149.317 173.996Z" fill="white"/>
<path d="M266.121 10.149C268.331 12.2698 270.456 14.3135 272.481 16.4528C272.804 16.7948 272.892 17.6423 272.72 18.1239C272.174 19.6562 268.205 21.5909 266.473 21.2544C266.454 21.451 266.451 21.6446 266.416 21.832C266.222 22.8605 266.37 24.3114 265.749 24.8263C264.483 25.8763 263.367 24.7368 262.432 23.771C260.953 22.2452 259.449 20.7439 258.013 19.1788C257.733 18.8734 257.716 18.3245 258.063 18.046C258.46 17.4241 258.81 16.7641 259.269 16.1925C259.626 15.7489 260.058 15.2315 260.561 15.0658C262.508 14.4244 263.795 13.3969 263.349 11.1765C264.284 10.7987 265.144 10.4511 266.121 10.149Z" fill="white"/>
<path d="M390.368 169.03C390.366 174.92 390.385 180.605 390.337 186.289C390.331 186.984 390.116 188.156 389.74 188.273C388.905 188.533 387.503 188.644 387.04 188.149C384.513 185.447 382.198 182.546 379.829 179.698C379.731 179.58 379.816 179.308 379.816 179.008C382.692 177.702 384.581 179.191 386.497 181.928C386.563 180.563 386.627 179.84 386.629 179.117C386.64 174.889 386.651 170.66 386.628 166.431C386.621 165.066 386.694 163.982 388.557 164.006C390.308 164.028 390.399 165.049 390.367 166.328C390.346 167.16 390.366 167.992 390.368 169.03Z" fill="white"/>
<path d="M149.339 174.02C150.568 172.241 151.789 170.454 153.233 168.339C151.869 168.122 150.766 167.822 149.657 167.795C146.489 167.719 143.317 167.738 140.148 167.755C138.819 167.762 138.547 166.993 138.568 165.873C138.587 164.88 138.737 164.031 139.988 164.06C146.859 164.217 153.729 164.384 160.599 164.557C160.717 164.56 160.831 164.687 161.194 164.904C160.84 165.508 160.556 166.172 160.118 166.711C158.644 168.522 156.984 170.196 155.641 172.097C154.071 174.316 151.888 174.037 149.508 174.001C149.317 173.996 149.332 174.012 149.339 174.02Z" fill="white"/>
<path d="M264.255 139.026C264.259 135.772 264.276 132.723 264.261 129.673C264.256 128.55 264.537 127.82 265.874 127.815C267.149 127.811 267.574 128.403 267.568 129.592C267.546 133.68 267.544 137.769 267.568 141.858C267.574 143.066 267.108 143.63 265.85 143.608C264.679 143.587 264.249 143.027 264.269 141.934C264.285 141.034 264.261 140.133 264.255 139.026Z" fill="white"/>
<path d="M402.667 168.644C402.144 168.646 401.703 168.684 401.263 168.722C401.263 167.216 401.263 165.71 401.263 164.204C401.485 164.173 401.708 164.142 401.931 164.111C402.502 164.809 403.073 165.507 403.751 166.337C404.493 165.496 405.123 164.782 405.752 164.069C405.918 164.13 406.083 164.192 406.248 164.253C406.248 165.872 406.248 167.492 406.248 169.122C405.033 168.968 403.891 168.824 402.667 168.644Z" fill="white"/>
<path d="M311.639 183.368C310.864 183.493 310.253 183.555 309.64 183.581C308.204 183.641 306.954 183.686 306.945 181.552C306.936 179.497 308.038 179.402 309.554 179.414C312.597 179.44 313.207 180.452 311.639 183.368Z" fill="white"/>
<path d="M182.508 176.125C182.689 178.372 181.241 178.167 179.929 178.169C178.9 178.171 177.836 178.053 178.046 176.695C178.165 175.917 178.736 174.623 179.173 174.593C180.369 174.511 182.23 173.538 182.508 176.125Z" fill="white"/>
<path d="M399.038 165.46C398.743 166.732 398.562 167.894 398.381 169.056C398.211 169.071 398.04 169.085 397.869 169.1C397.48 167.587 397.091 166.074 396.594 164.14C397.484 164.201 398.476 164.27 399.467 164.339C399.362 164.676 399.257 165.013 399.038 165.46Z" fill="white"/>
<path d="M69.6729 138.995C69.5922 139.493 69.523 139.859 69.4538 140.226C69.3436 140.227 69.2335 140.228 69.1234 140.229C68.9332 139.475 68.6224 138.726 68.5951 137.966C68.5768 137.457 68.9606 136.933 69.1645 136.415C69.4607 136.919 69.833 137.396 70.0182 137.937C70.1009 138.179 69.8073 138.55 69.6729 138.995Z" fill="white"/>
<path d="M181.502 80.193C182.009 80.8769 182.431 81.6187 182.853 82.3606C182.651 82.4947 182.449 82.6288 182.247 82.7629C181.891 82.0494 181.536 81.3358 181.216 80.4973C181.252 80.3723 181.418 80.2509 181.502 80.193Z" fill="white"/>
<path d="M19.3218 78.0601C19.414 77.9237 19.5757 77.8656 19.7373 77.8075C19.7149 77.9312 19.6925 78.0549 19.6021 78.2349C19.4864 78.2402 19.4388 78.1893 19.3218 78.0601Z" fill="white"/>
<path d="M183.394 83.5797C183.411 83.5802 183.376 83.5793 183.394 83.5797Z" fill="white"/>
<path d="M61.5577 37.6745C61.4958 37.6777 61.3663 37.5988 61.2936 37.4758C61.397 37.4853 61.4436 37.5388 61.5577 37.6745Z" fill="white"/>
<path d="M103.451 58.4875C103.379 58.5945 103.231 58.6125 103.083 58.6304C103.093 58.5276 103.103 58.4247 103.167 58.2727C103.273 58.2819 103.325 58.3402 103.451 58.4875Z" fill="white"/>
<path d="M176.804 74.3912C176.727 74.4081 176.682 74.385 176.637 74.362C176.703 74.3584 176.77 74.3548 176.804 74.3912Z" fill="white"/>
<path d="M109.203 50.4079C109.249 50.3511 109.293 50.3437 109.338 50.3363C109.292 50.3766 109.247 50.417 109.203 50.4079Z" fill="white"/>
<path d="M185.572 84.4109C185.588 84.4023 185.555 84.4194 185.572 84.4109Z" fill="white"/>
<path d="M490.705 62.9884C490.6 62.8834 490.547 62.7358 490.493 62.5882C490.581 62.7073 490.669 62.8265 490.705 62.9884Z" fill="white"/>
<path d="M381.562 87.8622C381.52 87.9162 381.476 87.9221 381.432 87.9279C381.475 87.8899 381.518 87.852 381.562 87.8622Z" fill="white"/>
<path d="M345.947 65.8696C345.964 65.87 345.929 65.8692 345.947 65.8696Z" fill="white"/>
<path d="M344.948 65.5428C344.978 65.5249 344.918 65.5608 344.948 65.5428Z" fill="white"/>
</svg>
