<svg width="96" height="52" viewBox="0 0 96 52" fill="none" xmlns="http://www.w3.org/2000/svg">
<path fill-rule="evenodd" clip-rule="evenodd" d="M46.9699 2.51071C46.869 2.77488 46.7994 2.95713 46.767 2.98922C46.6509 3.10419 45.7225 3.4491 45.7225 3.4491L45.6065 7.01317L46.4188 7.58802C44.2172 8.87819 43.3512 9.82745 42.7053 12.0719C43.6245 12.2531 44.1335 12.0851 45.0263 11.1521H45.9546V12.4168L46.767 13.1066L45.9546 13.9114L46.767 14.7162C47.006 15.1425 46.9275 15.242 46.767 15.406H45.3744V14.1413L44.6781 12.4168L43.6337 13.1066H42.8214L42.009 12.0719L39.9202 13.1066V13.9114C38.8455 13.687 38.2916 13.4486 37.3671 12.8766L35.8585 13.9114L31.9129 12.7617C29.0355 8.70532 27.6236 7.31908 25.4143 6.20838L22.6292 7.12814L15.3182 7.01317L14.2738 6.20838L12.9973 7.01317L6.26654 7.24311C5.61765 7.55314 5.27917 7.78598 4.75793 8.39281H5.9184L0.464188 12.1868L0 13.6814L5.45421 10.8072C6.72474 10.8357 7.23243 10.9308 8.00724 11.1521L5.68631 13.6814L5.45421 14.9461L6.84678 14.7162L9.39981 12.5317L6.96282 17.1305L7.19492 18.6251L8.23934 17.9353L10.6763 13.4515L11.9528 13.9114L9.864 18.7401L10.7924 21.7293L12.6491 20.4647L14.6219 11.382L16.2466 19.315L17.7552 20.4647L18.4515 18.6251L17.175 12.8766L19.9601 16.7856L20.1922 17.4754V18.3952L20.0761 19.4299L20.1922 20.2347L25.9945 23.4539L25.0662 25.8683L29.0118 28.1677L31.1006 26.4431L31.9129 27.018L30.7525 29.6623L33.5376 30.697C34.4135 29.644 35.366 29.1735 37.8313 28.5126L34.3499 22.0742L34.582 20.4647H37.3671L38.4116 23.4539H40.2683L40.8486 18.3952L42.4732 19.6599L43.1695 25.6383L43.8658 26.4431L44.33 24.3736H44.6781L43.8658 28.9724L44.6781 28.1677V27.5928L45.6065 26.2132L45.9546 31.1569L45.3744 31.8467H42.7053L42.009 33.1114H41.3127V32.6515H40.8486L39.9202 33.5713L40.2683 33.8012L32.4932 43.8036L34.0018 43.3437L35.7425 41.0443H36.6709L37.019 40.2395H38.0634L36.4388 42.7689H37.4832L38.9918 40.2395H39.572L38.0634 43.3437L39.2239 44.8383L40.5004 44.0335L40.8486 42.309H41.3127V43.5736L41.5448 44.3784L43.8658 47.0227V44.8383L45.3744 45.1832L45.9546 38.6299L45.7225 37.9401L46.3028 37.1353L46.9991 37.9401L47.2311 44.3784H47.5793V47.0227L47.2311 47.3677V51.0467L47.5793 51.8515H48.1595L48.2238 23.1358L48.2875 51.8515H48.8623L49.2072 51.0467V47.3677L48.8623 47.0227V44.3784H49.2072L49.4372 37.9401L50.127 37.1353L50.7018 37.9401L50.4719 38.6299L51.0467 45.1832L52.5414 44.8383V47.0227L54.8408 44.3784L55.0707 43.5736V42.309H55.5306L55.8755 44.0335L57.1402 44.8383L58.2899 43.3437L56.7952 40.2395H57.3701L58.8647 42.7689H59.8994L58.2899 40.2395H59.3246L59.6695 41.0443H60.5893L62.3138 43.3437L63.8084 43.8036L56.1054 33.8012L56.4503 33.5713L55.5306 32.6515H55.0707V33.1114H54.3809L53.6911 31.8467H51.0467L50.4719 31.1569L50.8168 26.2132L51.7366 27.5928V28.1677L52.5414 28.9724L51.7366 24.3736H52.0815L52.5414 26.4431L53.2312 25.6383L53.921 19.6599L55.5306 18.3952L56.1054 23.4539H57.9449L58.9797 20.4647H61.739L61.9689 22.0742L58.5198 28.5126C60.9623 29.1735 61.9059 29.644 62.7737 30.697L65.533 29.6623L64.3833 27.018L65.1881 26.4431L67.2575 28.1677L71.1665 25.8683L70.2467 23.4539L75.9952 20.2347L76.1102 19.4299L75.9952 18.3952V17.4754L76.2252 16.7856L78.9845 12.8766L77.7198 18.6251L78.4096 20.4647L79.9042 19.315L81.5138 11.382L83.4683 20.4647L85.3078 21.7293L86.2276 18.7401L84.1581 13.9114L85.4228 13.4515L87.8371 17.9353L88.8719 18.6251L89.1018 17.1305L86.6875 12.5317L89.2168 14.7162L90.5964 14.9461L90.3665 13.6814L88.0671 11.1521C88.8347 10.9308 89.3377 10.8357 90.5964 10.8072L96 13.6814L95.5401 12.1868L90.1366 8.39281H91.2863C90.7699 7.78598 90.4345 7.55314 89.7916 7.24311L83.1234 7.01317L81.8587 6.20838L80.824 7.01317L73.5809 7.12814L70.8216 6.20838C68.6328 7.31908 67.234 8.70532 64.3833 12.7617L60.4743 13.9114L58.9797 12.8766C58.0638 13.4486 57.5151 13.687 56.4503 13.9114V13.1066L54.3809 12.0719L53.5761 13.1066H52.7713L51.7366 12.4168L51.0467 14.1413V15.406H49.6671C49.508 15.242 49.4303 15.1425 49.6671 14.7162L50.4719 13.9114L49.6671 13.1066L50.4719 12.4168V11.1521H51.3917C52.2761 12.0851 52.7804 12.2531 53.6911 12.0719C53.0511 9.82745 52.1932 8.87819 50.012 7.58802L50.8168 7.01317L50.7018 3.4491C50.7018 3.4491 49.7821 3.10419 49.6671 2.98922C49.635 2.95712 49.566 2.77486 49.466 2.51066C49.2236 1.86995 48.7987 0.747375 48.2753 0.1161L48.2756 0C48.2582 0.0180889 48.241 0.0367486 48.2238 0.0559471C48.2068 0.0367486 48.1897 0.0180889 48.1725 0L48.1727 0.114955C47.644 0.746015 47.2148 1.86956 46.9699 2.51066L46.9699 2.51071ZM44.7942 16.9006L46.3028 22.3041L46.1867 22.4191H45.1423L43.5177 17.8203L44.7942 16.9006ZM47.2312 3.44909V5.51855L46.4188 3.794V3.44909H47.2312ZM46.1867 8.73771L46.0707 10.3473C46.0707 10.3473 44.9102 10.4623 44.9102 10.2323C44.9102 10.0024 45.3057 9.05377 46.1867 8.73771ZM32.7253 23.2239L34.6981 25.2934L33.1895 26.673L31.2167 24.8335L32.7253 23.2239ZM28.8957 20.3497L27.9674 18.1653L25.0662 17.8203V20.1197L26.3427 21.1545L28.8957 20.3497ZM24.0218 19.085V17.8203L22.9773 18.6251L24.0218 19.085ZM19.3799 11.267H17.7552C19.0087 14.6209 20.1858 15.5309 22.7452 16.2108V14.7161C21.104 13.804 20.2743 13.1724 19.3799 11.267ZM46.883 34.1461V28.2826L46.1867 29.2024V32.6515L46.883 34.1461ZM51.6216 16.9006L50.127 22.3041L50.242 22.4191H51.2767L52.8863 17.8203L51.6216 16.9006ZM49.2072 3.44909V5.51855L50.012 3.794V3.44909H49.2072ZM50.242 8.73771L50.3569 10.3473C50.3569 10.3473 51.5066 10.4623 51.5066 10.2323C51.5066 10.0024 51.1148 9.05377 50.242 8.73771ZM63.5785 23.2239L61.624 25.2934L63.1186 26.673L65.0731 24.8335L63.5785 23.2239ZM67.3725 20.3497L68.2922 18.1653L71.1665 17.8203V20.1197L69.9018 21.1545L67.3725 20.3497ZM72.2012 19.085V17.8203L73.236 18.6251L72.2012 19.085ZM76.8 11.267H78.4096C77.1677 14.6209 76.0016 15.5309 73.4659 16.2108V14.7161C75.0919 13.804 75.9139 13.1724 76.8 11.267ZM49.5521 34.1461V28.2826L50.242 29.2024V32.6515L49.5521 34.1461Z" fill="white"/>
</svg>
