<svg width="25" height="24" viewBox="0 0 25 24" fill="none" xmlns="http://www.w3.org/2000/svg">
<g clip-path="url(#clip0_603_30)">
<path d="M23.4042 2.99998C22.4466 3.67546 21.3863 4.19209 20.2642 4.52999C19.6619 3.8375 18.8615 3.34668 17.9712 3.12391C17.0809 2.90115 16.1437 2.95718 15.2863 3.28444C14.4288 3.6117 13.6926 4.19439 13.1772 4.9537C12.6617 5.71302 12.3919 6.61232 12.4042 7.52998V8.52998C10.6468 8.57555 8.90545 8.1858 7.33518 7.39543C5.76492 6.60506 4.41449 5.43862 3.40417 3.99998C3.40417 3.99998 -0.595825 13 8.40417 17C6.3447 18.398 3.89133 19.0989 1.40417 19C10.4042 24 21.4042 19 21.4042 7.49998C21.4033 7.22144 21.3765 6.94358 21.3242 6.66999C22.3448 5.66348 23.065 4.3927 23.4042 2.99998Z" stroke="white" stroke-width="2" stroke-linecap="round" stroke-linejoin="round"/>
</g>
<defs>
<clipPath id="clip0_603_30">
<rect width="24" height="24" fill="white" transform="translate(0.404175)"/>
</clipPath>
</defs>
</svg>
